<mxfile host="app.diagrams.net" agent="Mozilla/5.0 (Windows NT 10.0; Win64; x64) AppleWebKit/537.36 (KHTML, like Gecko) Chrome/137.0.0.0 Safari/537.36 Edg/137.0.0.0" version="26.2.14">
  <diagram name="Page-1" id="2i3wXNEGkjuxt278Jh7A">
    <mxGraphModel dx="2594" dy="1614" grid="1" gridSize="10" guides="1" tooltips="1" connect="1" arrows="1" fold="1" page="0" pageScale="1" pageWidth="1100" pageHeight="850" math="0" shadow="0">
      <root>
        <mxCell id="0" />
        <mxCell id="1" parent="0" />
        <mxCell id="IyQ0IFTyMNWTeg9eIhTh-50" style="edgeStyle=orthogonalEdgeStyle;rounded=0;orthogonalLoop=1;jettySize=auto;html=1;exitX=0.5;exitY=1;exitDx=0;exitDy=0;entryX=0.5;entryY=0;entryDx=0;entryDy=0;" edge="1" parent="1" source="IyQ0IFTyMNWTeg9eIhTh-35" target="IyQ0IFTyMNWTeg9eIhTh-36">
          <mxGeometry relative="1" as="geometry" />
        </mxCell>
        <mxCell id="IyQ0IFTyMNWTeg9eIhTh-35" value="Azure Function App" style="rounded=1;whiteSpace=wrap;html=1;" vertex="1" parent="1">
          <mxGeometry x="320" y="400" width="120" height="60" as="geometry" />
        </mxCell>
        <mxCell id="IyQ0IFTyMNWTeg9eIhTh-42" value="" style="rounded=1;whiteSpace=wrap;html=1;fillColor=none;strokeColor=#6c8ebf;strokeWidth=4;" vertex="1" parent="1">
          <mxGeometry x="100" y="50" width="930" height="630" as="geometry" />
        </mxCell>
        <mxCell id="IyQ0IFTyMNWTeg9eIhTh-51" style="edgeStyle=orthogonalEdgeStyle;rounded=0;orthogonalLoop=1;jettySize=auto;html=1;exitX=0.5;exitY=1;exitDx=0;exitDy=0;entryX=0.5;entryY=0;entryDx=0;entryDy=0;" edge="1" parent="1" source="IyQ0IFTyMNWTeg9eIhTh-36" target="IyQ0IFTyMNWTeg9eIhTh-37">
          <mxGeometry relative="1" as="geometry" />
        </mxCell>
        <mxCell id="IyQ0IFTyMNWTeg9eIhTh-36" value="Azure Logic App" style="rounded=1;whiteSpace=wrap;html=1;" vertex="1" parent="1">
          <mxGeometry x="320" y="500" width="120" height="60" as="geometry" />
        </mxCell>
        <mxCell id="IyQ0IFTyMNWTeg9eIhTh-61" style="edgeStyle=orthogonalEdgeStyle;rounded=0;orthogonalLoop=1;jettySize=auto;html=1;exitX=0.5;exitY=1;exitDx=0;exitDy=0;entryX=0.5;entryY=0;entryDx=0;entryDy=0;" edge="1" parent="1" source="IyQ0IFTyMNWTeg9eIhTh-37" target="IyQ0IFTyMNWTeg9eIhTh-60">
          <mxGeometry relative="1" as="geometry" />
        </mxCell>
        <mxCell id="IyQ0IFTyMNWTeg9eIhTh-37" value="Azure Communication Services" style="rounded=1;whiteSpace=wrap;html=1;" vertex="1" parent="1">
          <mxGeometry x="320" y="600" width="120" height="60" as="geometry" />
        </mxCell>
        <mxCell id="IyQ0IFTyMNWTeg9eIhTh-41" value="Store Manager" style="rounded=1;whiteSpace=wrap;html=1;" vertex="1" parent="1">
          <mxGeometry x="320" y="980" width="120" height="60" as="geometry" />
        </mxCell>
        <mxCell id="IyQ0IFTyMNWTeg9eIhTh-6" value="" style="group" vertex="1" connectable="0" parent="1">
          <mxGeometry x="-180" y="360" width="160" height="160" as="geometry" />
        </mxCell>
        <mxCell id="IyQ0IFTyMNWTeg9eIhTh-1" value="Inventory Data in KQL DB" style="rounded=1;whiteSpace=wrap;html=1;" vertex="1" parent="IyQ0IFTyMNWTeg9eIhTh-6">
          <mxGeometry x="20" y="35" width="120" height="60" as="geometry" />
        </mxCell>
        <mxCell id="IyQ0IFTyMNWTeg9eIhTh-3" value="" style="rounded=1;whiteSpace=wrap;html=1;fillColor=none;strokeWidth=3;strokeColor=#6c8ebf;" vertex="1" parent="IyQ0IFTyMNWTeg9eIhTh-6">
          <mxGeometry width="160" height="130" as="geometry" />
        </mxCell>
        <mxCell id="IyQ0IFTyMNWTeg9eIhTh-4" value="Fabric" style="text;html=1;align=center;verticalAlign=middle;whiteSpace=wrap;rounded=0;" vertex="1" parent="IyQ0IFTyMNWTeg9eIhTh-6">
          <mxGeometry x="50" y="130" width="60" height="30" as="geometry" />
        </mxCell>
        <mxCell id="IyQ0IFTyMNWTeg9eIhTh-43" value="Azure Apps" style="text;html=1;align=center;verticalAlign=middle;whiteSpace=wrap;rounded=0;" vertex="1" parent="1">
          <mxGeometry x="782.5" y="680" width="70" height="30" as="geometry" />
        </mxCell>
        <mxCell id="IyQ0IFTyMNWTeg9eIhTh-33" value="Azure Content Safety" style="text;html=1;align=center;verticalAlign=middle;whiteSpace=wrap;rounded=0;container=0;" vertex="1" parent="1">
          <mxGeometry x="810" y="580" width="120" height="30" as="geometry" />
        </mxCell>
        <mxCell id="IyQ0IFTyMNWTeg9eIhTh-29" value="Azure AI Foundry" style="text;html=1;align=center;verticalAlign=middle;whiteSpace=wrap;rounded=0;container=0;" vertex="1" parent="1">
          <mxGeometry x="692.5" y="540" width="100" height="30" as="geometry" />
        </mxCell>
        <mxCell id="IyQ0IFTyMNWTeg9eIhTh-27" value="Azure OpenAI O1" style="rounded=1;whiteSpace=wrap;html=1;container=0;" vertex="1" parent="1">
          <mxGeometry x="550" y="320" width="120" height="60" as="geometry" />
        </mxCell>
        <mxCell id="IyQ0IFTyMNWTeg9eIhTh-20" style="edgeStyle=orthogonalEdgeStyle;rounded=0;orthogonalLoop=1;jettySize=auto;html=1;exitX=0.5;exitY=1;exitDx=0;exitDy=0;entryX=1;entryY=0.5;entryDx=0;entryDy=0;" edge="1" parent="1" source="IyQ0IFTyMNWTeg9eIhTh-16" target="IyQ0IFTyMNWTeg9eIhTh-17">
          <mxGeometry relative="1" as="geometry" />
        </mxCell>
        <mxCell id="IyQ0IFTyMNWTeg9eIhTh-21" style="edgeStyle=orthogonalEdgeStyle;rounded=0;orthogonalLoop=1;jettySize=auto;html=1;exitX=0.5;exitY=1;exitDx=0;exitDy=0;entryX=1;entryY=0.5;entryDx=0;entryDy=0;" edge="1" parent="1" source="IyQ0IFTyMNWTeg9eIhTh-16" target="IyQ0IFTyMNWTeg9eIhTh-18">
          <mxGeometry relative="1" as="geometry" />
        </mxCell>
        <mxCell id="IyQ0IFTyMNWTeg9eIhTh-22" style="edgeStyle=orthogonalEdgeStyle;rounded=0;orthogonalLoop=1;jettySize=auto;html=1;exitX=0.5;exitY=1;exitDx=0;exitDy=0;entryX=1;entryY=0.5;entryDx=0;entryDy=0;" edge="1" parent="1" source="IyQ0IFTyMNWTeg9eIhTh-16" target="IyQ0IFTyMNWTeg9eIhTh-19">
          <mxGeometry relative="1" as="geometry" />
        </mxCell>
        <mxCell id="IyQ0IFTyMNWTeg9eIhTh-16" value="Shopper Assistant" style="rounded=1;whiteSpace=wrap;html=1;container=0;" vertex="1" parent="1">
          <mxGeometry x="790" y="160" width="120" height="60" as="geometry" />
        </mxCell>
        <mxCell id="IyQ0IFTyMNWTeg9eIhTh-46" style="edgeStyle=orthogonalEdgeStyle;rounded=0;orthogonalLoop=1;jettySize=auto;html=1;exitX=0;exitY=0.5;exitDx=0;exitDy=0;entryX=1;entryY=0.5;entryDx=0;entryDy=0;startArrow=classic;startFill=1;" edge="1" parent="1" source="IyQ0IFTyMNWTeg9eIhTh-17" target="IyQ0IFTyMNWTeg9eIhTh-45">
          <mxGeometry relative="1" as="geometry" />
        </mxCell>
        <mxCell id="IyQ0IFTyMNWTeg9eIhTh-17" value="Interior Designer Agent" style="rounded=1;whiteSpace=wrap;html=1;container=0;" vertex="1" parent="1">
          <mxGeometry x="710" y="240" width="120" height="60" as="geometry" />
        </mxCell>
        <mxCell id="IyQ0IFTyMNWTeg9eIhTh-44" style="edgeStyle=orthogonalEdgeStyle;rounded=0;orthogonalLoop=1;jettySize=auto;html=1;exitX=0;exitY=0.5;exitDx=0;exitDy=0;entryX=1;entryY=0.5;entryDx=0;entryDy=0;strokeColor=default;startArrow=classicThin;startFill=1;" edge="1" parent="1" source="IyQ0IFTyMNWTeg9eIhTh-18" target="IyQ0IFTyMNWTeg9eIhTh-27">
          <mxGeometry relative="1" as="geometry" />
        </mxCell>
        <mxCell id="IyQ0IFTyMNWTeg9eIhTh-18" value="Loyalty Agent" style="rounded=1;whiteSpace=wrap;html=1;container=0;" vertex="1" parent="1">
          <mxGeometry x="710" y="320" width="120" height="60" as="geometry" />
        </mxCell>
        <mxCell id="IyQ0IFTyMNWTeg9eIhTh-49" style="edgeStyle=orthogonalEdgeStyle;rounded=0;orthogonalLoop=1;jettySize=auto;html=1;exitX=0;exitY=0.5;exitDx=0;exitDy=0;entryX=1;entryY=0.5;entryDx=0;entryDy=0;startArrow=classic;startFill=1;" edge="1" parent="1" source="IyQ0IFTyMNWTeg9eIhTh-19" target="IyQ0IFTyMNWTeg9eIhTh-35">
          <mxGeometry relative="1" as="geometry" />
        </mxCell>
        <mxCell id="IyQ0IFTyMNWTeg9eIhTh-19" value="Inventory Agent" style="rounded=1;whiteSpace=wrap;html=1;container=0;" vertex="1" parent="1">
          <mxGeometry x="710" y="400" width="120" height="60" as="geometry" />
        </mxCell>
        <mxCell id="IyQ0IFTyMNWTeg9eIhTh-23" value="" style="rounded=1;whiteSpace=wrap;html=1;fillColor=none;strokeColor=#d79b00;strokeWidth=3;container=0;" vertex="1" parent="1">
          <mxGeometry x="692.5" y="130" width="225" height="360" as="geometry" />
        </mxCell>
        <mxCell id="IyQ0IFTyMNWTeg9eIhTh-24" value="Azure AI Agents orchestrated by Semantic Kernel" style="text;html=1;align=center;verticalAlign=middle;whiteSpace=wrap;rounded=0;container=0;" vertex="1" parent="1">
          <mxGeometry x="722.5" y="500" width="165" height="30" as="geometry" />
        </mxCell>
        <mxCell id="IyQ0IFTyMNWTeg9eIhTh-28" value="" style="rounded=1;whiteSpace=wrap;html=1;fillColor=none;strokeColor=#6c8ebf;strokeWidth=3;container=0;" vertex="1" parent="1">
          <mxGeometry x="530" y="110" width="440" height="430" as="geometry" />
        </mxCell>
        <mxCell id="IyQ0IFTyMNWTeg9eIhTh-32" value="" style="rounded=1;whiteSpace=wrap;html=1;fillColor=none;dashed=1;strokeColor=#b85450;strokeWidth=1;dashPattern=8 8;container=0;" vertex="1" parent="1">
          <mxGeometry x="510" y="90" width="470" height="490" as="geometry" />
        </mxCell>
        <mxCell id="IyQ0IFTyMNWTeg9eIhTh-72" style="edgeStyle=orthogonalEdgeStyle;rounded=0;orthogonalLoop=1;jettySize=auto;html=1;exitX=0;exitY=0.5;exitDx=0;exitDy=0;startArrow=classic;startFill=1;" edge="1" parent="1" source="IyQ0IFTyMNWTeg9eIhTh-45" target="IyQ0IFTyMNWTeg9eIhTh-8">
          <mxGeometry relative="1" as="geometry" />
        </mxCell>
        <mxCell id="IyQ0IFTyMNWTeg9eIhTh-45" value="Azure AI Search" style="rounded=1;whiteSpace=wrap;html=1;" vertex="1" parent="1">
          <mxGeometry x="320" y="240" width="120" height="60" as="geometry" />
        </mxCell>
        <mxCell id="IyQ0IFTyMNWTeg9eIhTh-56" style="edgeStyle=orthogonalEdgeStyle;rounded=0;orthogonalLoop=1;jettySize=auto;html=1;exitX=0;exitY=0.5;exitDx=0;exitDy=0;entryX=1;entryY=0.5;entryDx=0;entryDy=0;startArrow=classic;startFill=1;" edge="1" parent="1" source="IyQ0IFTyMNWTeg9eIhTh-54" target="IyQ0IFTyMNWTeg9eIhTh-55">
          <mxGeometry relative="1" as="geometry" />
        </mxCell>
        <mxCell id="IyQ0IFTyMNWTeg9eIhTh-54" value="User Query" style="rounded=1;whiteSpace=wrap;html=1;" vertex="1" parent="1">
          <mxGeometry x="1340" y="335" width="120" height="60" as="geometry" />
        </mxCell>
        <mxCell id="IyQ0IFTyMNWTeg9eIhTh-59" style="edgeStyle=orthogonalEdgeStyle;rounded=0;orthogonalLoop=1;jettySize=auto;html=1;exitX=0;exitY=0.5;exitDx=0;exitDy=0;entryX=1;entryY=0.5;entryDx=0;entryDy=0;" edge="1" parent="1" source="IyQ0IFTyMNWTeg9eIhTh-55" target="IyQ0IFTyMNWTeg9eIhTh-42">
          <mxGeometry relative="1" as="geometry" />
        </mxCell>
        <mxCell id="IyQ0IFTyMNWTeg9eIhTh-55" value="Azure API Management" style="rounded=1;whiteSpace=wrap;html=1;" vertex="1" parent="1">
          <mxGeometry x="1100" y="335" width="120" height="60" as="geometry" />
        </mxCell>
        <mxCell id="IyQ0IFTyMNWTeg9eIhTh-62" style="edgeStyle=orthogonalEdgeStyle;rounded=0;orthogonalLoop=1;jettySize=auto;html=1;exitX=0.5;exitY=1;exitDx=0;exitDy=0;entryX=0.5;entryY=0;entryDx=0;entryDy=0;" edge="1" parent="1" source="IyQ0IFTyMNWTeg9eIhTh-60" target="IyQ0IFTyMNWTeg9eIhTh-41">
          <mxGeometry relative="1" as="geometry" />
        </mxCell>
        <mxCell id="IyQ0IFTyMNWTeg9eIhTh-60" value="Azure API Management" style="rounded=1;whiteSpace=wrap;html=1;" vertex="1" parent="1">
          <mxGeometry x="320" y="730" width="120" height="60" as="geometry" />
        </mxCell>
        <mxCell id="IyQ0IFTyMNWTeg9eIhTh-63" value="" style="rounded=1;whiteSpace=wrap;html=1;fillColor=none;strokeColor=#b85450;dashed=1;dashPattern=8 8;" vertex="1" parent="1">
          <mxGeometry x="50" y="20" width="1200" height="790" as="geometry" />
        </mxCell>
        <mxCell id="IyQ0IFTyMNWTeg9eIhTh-64" value="Azure Defender for cloud" style="text;html=1;align=center;verticalAlign=middle;whiteSpace=wrap;rounded=0;" vertex="1" parent="1">
          <mxGeometry x="930" y="810" width="140" height="30" as="geometry" />
        </mxCell>
        <mxCell id="IyQ0IFTyMNWTeg9eIhTh-65" value="" style="rounded=1;whiteSpace=wrap;html=1;fillColor=none;strokeColor=#6c8ebf;strokeWidth=4;" vertex="1" parent="1">
          <mxGeometry x="20" width="1260" height="855" as="geometry" />
        </mxCell>
        <mxCell id="IyQ0IFTyMNWTeg9eIhTh-67" value="" style="rounded=1;whiteSpace=wrap;html=1;fillColor=none;strokeColor=#b85450;dashed=1;dashPattern=8 8;" vertex="1" parent="1">
          <mxGeometry x="-200" y="-25" width="1510" height="930" as="geometry" />
        </mxCell>
        <mxCell id="IyQ0IFTyMNWTeg9eIhTh-66" value="Azure" style="text;html=1;align=center;verticalAlign=middle;whiteSpace=wrap;rounded=0;" vertex="1" parent="1">
          <mxGeometry x="770" y="860" width="60" height="30" as="geometry" />
        </mxCell>
        <mxCell id="IyQ0IFTyMNWTeg9eIhTh-68" value="Microsoft Purview" style="text;html=1;align=center;verticalAlign=middle;whiteSpace=wrap;rounded=0;" vertex="1" parent="1">
          <mxGeometry x="580" y="900" width="110" height="30" as="geometry" />
        </mxCell>
        <mxCell id="IyQ0IFTyMNWTeg9eIhTh-2" value="Product Catalog in Cosmos DB" style="rounded=1;whiteSpace=wrap;html=1;" vertex="1" parent="1">
          <mxGeometry x="140" y="250" width="120" height="60" as="geometry" />
        </mxCell>
        <mxCell id="IyQ0IFTyMNWTeg9eIhTh-8" value="" style="rounded=1;whiteSpace=wrap;html=1;fillColor=none;strokeColor=#b85450;strokeWidth=1;dashed=1;dashPattern=8 8;" vertex="1" parent="1">
          <mxGeometry x="120" y="220" width="160" height="120" as="geometry" />
        </mxCell>
        <mxCell id="IyQ0IFTyMNWTeg9eIhTh-9" value="Defender for Cosmos" style="text;html=1;align=center;verticalAlign=middle;whiteSpace=wrap;rounded=0;" vertex="1" parent="1">
          <mxGeometry x="140" y="340" width="120" height="30" as="geometry" />
        </mxCell>
        <mxCell id="IyQ0IFTyMNWTeg9eIhTh-71" style="edgeStyle=orthogonalEdgeStyle;rounded=0;orthogonalLoop=1;jettySize=auto;html=1;exitX=0;exitY=0.5;exitDx=0;exitDy=0;entryX=1.023;entryY=0.544;entryDx=0;entryDy=0;entryPerimeter=0;startArrow=classic;startFill=1;" edge="1" parent="1" source="IyQ0IFTyMNWTeg9eIhTh-35" target="IyQ0IFTyMNWTeg9eIhTh-3">
          <mxGeometry relative="1" as="geometry" />
        </mxCell>
      </root>
    </mxGraphModel>
  </diagram>
</mxfile>
